<svg xmlns="http://www.w3.org/2000/svg" viewBox="0 0 794.169 794.169" height="1058.892" width="1058.892" fill="#ffffff" xmlns:v="https://vecta.io/nano"><defs><linearGradient y2="772.108" x2="22.095" y1="22.095" x1="22.095" id="A" gradientUnits="userSpaceOnUse"><stop offset="0" stop-color="#5bf675"/><stop offset="1" stop-color="#0fbc2c"/></linearGradient><filter id="B" color-interpolation-filters="sRGB"><feFlood flood-color="#000" flood-opacity=".584"/><feComposite operator="in" in2="SourceGraphic"/><feGaussianBlur stdDeviation="15"/><feOffset dy="5"/><feComposite in="SourceGraphic"/></filter></defs><circle transform="matrix(.937 0 0 .937 25.019384 25.019384)" r="374.99" cy="397.085" cx="397.085" fill="url(#A)" filter="url(#B)"/><path d="M597.482 278.444c-4.21-4.21-9.646-4.2-13.847 0l-60.982 60.978c-4.434 4.443-10.173 4.443-14.61.004l-.316-.341c-4.45-4.43-4.45-10.157 0-14.604l60.963-60.985c4.22-4.194 4.22-9.631 0-13.838s-9.643-4.204-13.847-.004l-60.982 60.985c-4.44 4.43-10.173 4.43-14.61 0l-.331-.341c-4.44-4.44-4.44-10.167 0-14.61l60.985-60.975c4.204-4.2 4.213-9.634 0-13.847-4.204-4.2-9.019-3.914-13.843.004l-73.69 60.42c-22.976 19.296-31.55 44.934-15.537 69.511 1.356 2.075 1.451 4.683-.769 6.663L253.128 520.239c-15.25 13.557-14.547 29.686.375 44.603s31.049 15.628 44.612.372L460.897 382.25c1.974-2.23 4.579-2.129 6.663-.779 24.578 16.017 50.2 7.477 69.499-15.496l60.417-73.693c3.91-4.815 4.207-9.631 0-13.834zm-274.114 105.02c2.273-.999 5.046-.826 7.026 1.394l22.916 25.786 29.488-26.243-27.504-24.442c-2.223-1.974-2.397-4.756-1.397-7.026 10.835-24.594 7.978-61.966-26.293-96.237-36.208-36.208-89.067-44.971-117.257-16.783s-19.431 81.051 16.783 117.258c34.275 34.26 71.647 37.125 96.237 26.29zm212.268 136.738l-98.86-87.849-32.111 36.085 85.992 96.761c13.563 15.256 29.693 14.566 44.624-.372 14.932-14.919 15.625-31.064.359-44.624z"/></svg>