<svg xmlns="http://www.w3.org/2000/svg" viewBox="0 0 794.169 794.169" height="1058.892" width="1058.892" fill="#ffffff" xmlns:v="https://vecta.io/nano"><defs><linearGradient y2="794.169" x2="0" y1="0" x1="0" id="A" gradientUnits="userSpaceOnUse"><stop offset="0" stop-color="#5bf675"/><stop offset="1" stop-color="#0fbc2c"/></linearGradient></defs><path d="M0 0h794.169v794.169H0z" fill="url(#A)"/><path d="M645.321 250.122c-5.215-5.215-11.949-5.203-17.152 0l-75.539 75.535c-5.492 5.504-12.602 5.504-18.098.004l-.391-.422c-5.512-5.488-5.512-12.582 0-18.09l75.516-75.543c5.227-5.195 5.227-11.93 0-17.141s-11.945-5.207-17.152-.004l-75.539 75.543c-5.5 5.488-12.602 5.488-18.098 0l-.41-.422c-5.5-5.5-5.5-12.594 0-18.098l75.543-75.531c5.207-5.203 5.219-11.934 0-17.152-5.207-5.203-11.172-4.848-17.148.004l-91.281 74.844c-28.461 23.902-39.082 55.66-19.246 86.105 1.68 2.57 1.797 5.801-.953 8.254l-226.61 201.63c-18.891 16.793-18.02 36.773.465 55.25s38.461 19.359 55.262.461l201.64-226.64c2.445-2.762 5.672-2.637 8.254-.965 30.445 19.84 62.184 9.262 86.09-19.195l74.84-91.285c4.844-5.965 5.211-11.93 0-17.137zm-339.55 130.09c2.816-1.238 6.25-1.023 8.703 1.727l28.387 31.941 36.527-32.508-34.07-30.277c-2.754-2.445-2.969-5.891-1.731-8.703 13.422-30.465 9.883-76.758-32.57-119.21-44.851-44.852-110.329-55.707-145.249-20.789-34.914 34.922-24.07 100.4 20.789 145.25 42.457 42.438 88.75 45.988 119.21 32.566zm262.94 169.38l-122.46-108.82-39.777 44.699 106.52 119.86c16.801 18.898 36.781 18.043 55.277-.461 18.496-18.48 19.355-38.48.445-55.277z"/></svg>