<?xml version="1.0" standalone="no"?>
<!DOCTYPE svg PUBLIC "-//W3C//DTD SVG 20010904//EN"
 "http://www.w3.org/TR/2001/REC-SVG-20010904/DTD/svg10.dtd">
<svg version="1.0" xmlns="http://www.w3.org/2000/svg"
 width="700.000000pt" height="700.000000pt" viewBox="0 0 700.000000 700.000000"
 preserveAspectRatio="xMidYMid meet">
<metadata>
Created by potrace 1.14, written by Peter Selinger 2001-2017
</metadata>
<g transform="translate(0.000000,700.000000) scale(0.100000,-0.100000)"
fill="#000000" stroke="none">
<path d="M5815 6580 c-16 -4 -40 -12 -52 -18 -16 -9 -520 -418 -678 -550 -11
-9 -56 -46 -100 -82 -44 -35 -96 -78 -116 -95 -50 -42 -61 -51 -273 -225 -200
-164 -282 -241 -350 -330 -232 -303 -263 -612 -94 -930 53 -99 57 -130 25
-162 -15 -14 -155 -140 -191 -171 -29 -26 -155 -138 -182 -162 -12 -11 -37
-33 -55 -49 -40 -35 -189 -167 -204 -181 -7 -5 -44 -39 -85 -75 -40 -36 -85
-76 -100 -90 -15 -14 -55 -50 -90 -80 -34 -30 -72 -64 -84 -75 -24 -22 -157
-139 -188 -166 -20 -18 -154 -137 -172 -154 -6 -6 -47 -42 -91 -80 -44 -39
-87 -77 -95 -85 -8 -9 -154 -139 -325 -290 -170 -151 -312 -277 -315 -280 -3
-3 -43 -39 -90 -80 -47 -41 -87 -77 -90 -80 -3 -3 -43 -39 -90 -80 -47 -41
-87 -77 -90 -80 -3 -3 -63 -57 -135 -120 -71 -63 -137 -122 -146 -130 -20 -18
-70 -64 -174 -155 -174 -154 -200 -178 -246 -235 -75 -92 -110 -193 -104 -296
8 -130 62 -238 184 -367 164 -173 353 -243 525 -193 66 20 152 74 218 138 37
36 207 226 289 321 13 16 40 46 59 66 19 21 62 69 95 106 33 38 69 79 80 91
11 12 49 55 85 95 36 40 81 91 100 112 19 22 53 60 76 86 47 52 118 132 218
245 39 43 78 87 88 98 9 11 46 52 81 92 35 39 79 89 98 111 19 22 39 45 45 50
6 6 121 134 254 285 134 151 258 291 276 310 17 19 128 143 244 275 283 319
340 383 371 417 23 24 104 115 159 178 206 235 243 272 271 274 13 1 65 -19
114 -45 155 -82 249 -109 388 -110 131 -1 301 45 407 109 113 69 180 122 263
206 71 72 76 78 372 441 131 160 252 308 270 330 19 22 70 85 115 140 45 55
99 120 119 144 291 353 311 383 297 455 -9 42 -42 88 -85 116 -44 29 -118 31
-159 4 -15 -9 -272 -262 -572 -562 -369 -369 -558 -551 -584 -563 -42 -18
-100 -17 -124 4 -8 7 -17 10 -19 9 -8 -7 -72 58 -88 88 -22 42 -21 102 1 144
10 20 265 283 565 584 301 301 553 561 561 577 27 57 11 128 -40 178 -63 61
-130 73 -192 36 -19 -12 -278 -264 -575 -561 -301 -301 -556 -548 -577 -559
-45 -23 -84 -24 -129 -4 -101 44 -152 153 -112 238 11 23 225 245 569 590 303
303 556 565 562 580 47 112 -66 252 -183 227z"/>
<path d="M825 6474 c-106 -22 -114 -24 -199 -55 -321 -116 -546 -398 -610
-764 -15 -82 -15 -325 -1 -415 55 -352 251 -728 530 -1018 128 -134 369 -332
404 -332 5 0 11 -4 13 -8 2 -5 46 -32 98 -59 151 -80 323 -141 460 -163 41 -6
86 -14 100 -16 84 -15 322 0 408 25 17 5 32 8 32 6 0 -4 106 32 170 58 19 7
41 13 48 11 6 -1 19 -2 28 -3 18 -1 49 -31 144 -140 36 -41 70 -79 75 -85 6
-6 42 -47 80 -90 39 -44 87 -98 108 -120 l37 -40 32 30 c44 41 54 50 143 129
44 39 100 88 125 111 83 75 125 112 165 147 l40 36 -24 20 c-12 11 -55 49 -95
84 -39 35 -118 106 -176 157 -197 173 -210 187 -210 224 0 17 13 69 30 114 80
219 93 469 39 717 -35 159 -140 399 -234 540 -237 352 -581 638 -946 789 -82
33 -235 82 -289 92 -145 26 -195 31 -320 31 -80 -1 -172 -6 -205 -13z"/>
<path d="M4170 2883 c0 -5 -20 -29 -43 -54 -23 -25 -69 -76 -102 -114 -33 -37
-65 -73 -70 -79 -6 -6 -49 -54 -95 -106 -47 -52 -87 -97 -90 -100 -3 -3 -35
-39 -72 -80 l-66 -75 20 -25 c18 -23 118 -137 143 -164 6 -6 123 -137 259
-291 137 -154 279 -314 316 -355 37 -41 213 -239 391 -440 394 -446 440 -492
534 -537 84 -40 100 -43 185 -45 125 -2 262 65 391 192 159 156 229 333 193
489 -27 121 -110 225 -324 411 -47 41 -92 81 -101 90 -9 8 -31 28 -50 44 -19
16 -54 48 -79 70 -73 66 -191 171 -400 356 -319 282 -332 294 -360 320 -15 14
-56 50 -90 80 -35 30 -72 63 -83 72 -23 21 -166 149 -181 163 -6 6 -47 42 -91
80 -44 39 -88 78 -99 88 -21 18 -36 22 -36 10z"/>
</g>
</svg>
